<?xml version="1.0" standalone="no"?>
<!DOCTYPE svg PUBLIC "-//W3C//DTD SVG 20010904//EN"
 "http://www.w3.org/TR/2001/REC-SVG-20010904/DTD/svg10.dtd">
<svg version="1.0" xmlns="http://www.w3.org/2000/svg"
 width="900.000000pt" height="500.000000pt" viewBox="0 0 900.000000 500.000000"
 preserveAspectRatio="xMidYMid meet">

<g transform="translate(0.000000,500.000000) scale(0.100000,-0.100000)"
fill="#000000" stroke="none">
<path d="M4356 4789 c-253 -26 -520 -127 -729 -276 -109 -78 -268 -238 -346
-348 -533 -755 -270 -1802 556 -2214 200 -99 417 -152 638 -155 274 -3 488 47
723 169 142 74 249 153 367 270 258 259 403 575 436 950 50 572 -268 1153
-781 1428 -264 142 -578 206 -864 176z m389 -35 c144 -21 260 -59 410 -134
298 -147 520 -367 668 -658 110 -215 147 -364 154 -619 8 -282 -27 -456 -141
-688 -135 -276 -327 -485 -587 -640 -352 -209 -810 -258 -1204 -128 -385 126
-715 420 -885 788 -152 326 -177 721 -68 1065 120 379 395 699 755 880 278
139 576 183 898 134z"/>
<path d="M4370 4510 c-277 -33 -527 -154 -726 -354 -185 -184 -295 -394 -345
-656 -19 -99 -16 -338 5 -440 52 -242 156 -439 325 -613 148 -152 299 -248
491 -310 148 -49 234 -62 395 -61 310 2 594 114 816 323 258 242 392 548 392
896 0 659 -510 1189 -1173 1219 -58 3 -139 1 -180 -4z m330 -46 c489 -84 874
-461 971 -949 8 -41 14 -132 14 -220 0 -88 -6 -179 -14 -220 -90 -453 -431
-815 -878 -931 -121 -32 -328 -43 -453 -25 -443 65 -819 377 -960 799 -146
436 -27 912 307 1233 271 260 647 376 1013 313z"/>
<path d="M4923 3845 l-200 -175 10 -37 c17 -67 -4 -114 -95 -209 -44 -46 -86
-84 -93 -84 -7 0 -37 -27 -67 -59 -51 -58 -183 -177 -492 -445 -153 -133 -176
-163 -176 -231 0 -34 1 -35 38 -35 71 1 104 27 253 200 223 260 403 460 414
460 13 0 193 -186 363 -375 210 -234 220 -244 264 -256 63 -17 83 -10 86 31 3
38 -34 120 -58 128 -9 3 -7 -5 7 -24 22 -33 47 -98 33 -89 -4 3 -11 18 -15 34
-3 15 -15 38 -26 50 -11 12 -18 25 -15 30 3 5 -27 37 -67 72 -102 90 -446 410
-482 448 l-29 32 86 84 c52 50 99 87 115 90 15 4 35 10 43 14 23 11 103 14 96
3 -3 -5 -17 -7 -31 -4 -14 2 -25 2 -25 -1 0 -2 12 -7 26 -10 23 -4 44 17 200
194 96 110 170 199 165 199 -5 0 -15 -7 -22 -16 -27 -33 -290 -266 -295 -262
-2 3 61 78 141 166 80 89 141 162 136 162 -5 0 -13 -4 -16 -10 -12 -20 -296
-272 -301 -267 -3 2 59 76 138 163 160 179 159 179 -40 1 -79 -71 -146 -126
-149 -123 -3 3 61 77 142 165 80 89 144 161 142 161 -2 0 -94 -79 -204 -175z
m37 -298 c0 -2 -10 -12 -22 -23 l-23 -19 19 23 c18 21 26 27 26 19z m-1089
-844 c-16 -21 -33 -51 -37 -66 -3 -15 -9 -26 -11 -23 -9 9 18 74 42 100 36 39
40 31 6 -11z"/>
<path d="M3848 3976 c-55 -122 278 -528 542 -661 l66 -33 37 34 37 34 -89 98
c-151 165 -547 552 -565 552 -9 0 -21 -11 -28 -24z m9 -48 c-3 -7 -5 -2 -5 12
0 14 2 19 5 13 2 -7 2 -19 0 -25z"/>
<path d="M2541 1890 c-251 -66 -417 -240 -467 -489 -27 -139 -2 -296 71 -442
79 -156 201 -211 295 -133 55 46 62 139 23 308 -15 66 -14 70 3 83 10 7 21 13
26 13 20 0 82 -69 148 -165 129 -187 212 -253 347 -276 82 -13 277 17 223 35
-8 2 -47 6 -86 9 -124 7 -165 33 -349 222 -88 90 -175 172 -192 183 l-33 19
69 47 c93 63 211 188 246 261 55 111 42 236 -30 291 -73 55 -169 66 -294 34z
m154 -53 c24 -14 50 -40 65 -67 21 -38 25 -58 25 -130 -1 -77 -4 -91 -34 -148
-37 -68 -110 -142 -188 -189 -40 -24 -54 -28 -83 -22 -19 4 -38 5 -42 3 -8 -5
-9 0 -43 140 -14 60 -30 115 -36 123 -14 16 -50 17 -82 2 l-24 -11 38 -129
c38 -129 38 -130 19 -149 -33 -33 -19 -70 25 -70 19 0 25 -13 49 -111 15 -60
28 -135 29 -166 1 -47 -2 -58 -22 -74 -69 -56 -140 7 -196 172 -111 323 -50
614 156 759 121 85 263 113 344 67z m-348 -623 c-9 -9 -28 6 -21 18 4 6 10 6
17 -1 6 -6 8 -13 4 -17z"/>
<path d="M3743 1790 c-21 -9 -23 -16 -25 -97 -1 -48 -2 -95 -4 -103 -1 -8 -2
-23 -3 -32 -1 -10 -13 -19 -31 -23 -16 -4 -30 -13 -30 -21 0 -9 11 -14 30 -14
l30 0 0 -127 c0 -135 18 -245 45 -287 24 -36 69 -49 109 -32 37 15 84 68 118
133 13 23 26 43 29 43 4 0 10 -16 13 -35 13 -69 83 -125 155 -125 44 0 85 29
131 92 l28 38 11 -45 c31 -124 106 -109 194 38 l42 72 6 -55 c13 -116 77 -167
158 -126 30 16 91 80 91 96 0 6 4 10 9 10 5 0 9 -6 8 -12 -2 -68 20 -104 69
-114 25 -5 38 0 67 26 42 37 161 221 193 299 20 48 28 56 61 67 21 6 60 21 87
33 27 12 50 20 52 18 2 -2 -12 -28 -31 -58 -116 -184 -152 -271 -140 -335 10
-56 38 -77 94 -71 42 5 52 12 114 77 64 68 67 70 67 43 1 -40 33 -106 65 -131
32 -25 84 -37 121 -28 14 4 50 30 80 58 l54 51 0 -47 c0 -53 11 -81 40 -96 33
-17 80 11 153 91 l67 74 -14 -45 c-8 -25 -21 -65 -30 -89 -21 -56 -7 -77 43
-66 40 8 43 16 71 155 23 113 24 116 71 162 50 49 115 88 147 88 11 0 26 -7
33 -16 15 -19 6 -60 -60 -247 -22 -64 -41 -126 -41 -137 0 -29 44 -70 75 -70
40 0 84 27 153 94 59 56 63 58 56 31 -14 -53 -9 -130 9 -158 44 -67 142 -37
270 84 57 54 70 70 60 80 -10 10 -25 1 -75 -48 -70 -67 -118 -96 -151 -91 -36
5 -29 113 17 263 21 66 39 122 41 124 3 2 31 -3 64 -11 33 -9 63 -13 66 -10
16 17 -1 32 -50 43 -31 7 -58 16 -61 20 -2 4 14 58 36 120 22 62 39 114 37
116 -2 1 -17 6 -34 9 l-30 6 -48 -116 -48 -116 -32 6 c-24 4 -34 2 -38 -10 -5
-12 1 -18 23 -23 17 -3 30 -6 30 -8 0 -1 -14 -41 -31 -90 -24 -70 -41 -101
-85 -150 -88 -101 -164 -142 -164 -88 0 10 23 83 50 162 53 153 59 193 35 228
-20 28 -81 46 -121 34 -45 -13 -107 -47 -128 -70 -30 -34 -35 -25 -19 35 8 31
12 63 9 70 -7 18 -70 19 -83 2 -6 -7 -18 -56 -27 -108 -18 -101 -32 -125 -130
-227 -45 -48 -73 -55 -81 -20 -8 31 27 201 64 310 33 98 30 108 -31 91 -23 -7
-34 -18 -43 -44 l-13 -35 -10 26 c-5 14 -27 40 -48 58 -35 31 -41 33 -95 29
-94 -7 -162 -68 -200 -180 -19 -57 -116 -183 -155 -200 -20 -9 -28 -9 -41 5
-23 23 -4 108 59 263 27 69 47 132 44 140 -5 14 -19 15 -99 10 l-92 -7 -15 33
c-13 29 -20 33 -55 33 -32 0 -42 -5 -51 -24 -17 -34 1 -81 37 -95 16 -6 29
-18 29 -27 0 -40 -155 -290 -192 -310 -44 -24 -47 22 -18 261 15 122 18 165 9
171 -10 6 -65 -4 -75 -14 -2 -1 -10 -61 -19 -132 -13 -101 -22 -142 -44 -184
-33 -66 -69 -96 -103 -88 -50 13 -60 100 -33 281 22 144 21 146 -17 146 -18 0
-39 -4 -46 -9 -8 -5 -20 -51 -29 -112 -12 -86 -22 -118 -56 -181 -22 -43 -54
-90 -70 -105 -28 -28 -29 -28 -44 -8 -12 17 -14 43 -10 155 4 74 11 163 18
198 6 35 9 65 7 68 -3 2 -23 -1 -44 -8 -33 -11 -40 -19 -48 -49 l-9 -36 -34
38 c-40 45 -86 57 -144 40 -78 -24 -143 -110 -155 -209 -7 -53 -50 -140 -96
-196 -41 -50 -78 -48 -95 7 -14 42 -30 238 -25 305 3 39 5 42 31 42 51 0 91
12 91 27 0 11 -13 14 -62 12 l-63 -3 0 127 c0 136 -1 138 -52 117z m1437 -251
c10 -18 9 -20 -7 -17 -10 2 -19 11 -21 21 -5 24 15 21 28 -4z m-892 -34 c44
-37 55 -74 50 -163 -10 -162 -108 -254 -188 -174 -35 35 -50 87 -50 172 1 149
102 238 188 165z m1500 -71 c78 -55 64 -228 -27 -324 -60 -64 -113 -62 -158 6
-26 40 -22 164 7 232 39 89 118 128 178 86z"/>
<path d="M3282 1530 c-31 -29 -28 -72 8 -113 l30 -34 -29 -84 c-39 -115 -58
-156 -93 -206 -66 -97 -159 -97 -221 0 l-26 40 85 80 c46 44 91 92 99 108 36
69 6 129 -64 129 -52 0 -81 -12 -124 -49 -136 -120 -99 -408 58 -450 130 -34
240 85 315 342 13 42 25 77 27 77 7 0 128 -63 165 -87 51 -31 78 -77 78 -132
0 -36 -6 -49 -34 -77 -30 -30 -40 -34 -85 -34 -37 0 -56 5 -71 20 -47 47 -30
124 36 158 46 23 30 37 -25 22 -73 -19 -107 -92 -74 -158 52 -100 217 -95 289
10 24 34 29 54 32 113 4 66 2 74 -23 103 -33 39 -73 60 -183 97 l-83 27 6 38
c4 22 2 47 -5 59 -14 27 -59 28 -88 1z m66 -43 c2 -15 -1 -27 -5 -27 -15 0
-33 23 -33 43 0 30 34 16 38 -16z m-300 -93 c47 -33 8 -137 -76 -202 l-32 -25
0 77 c0 83 14 124 52 150 28 20 28 20 56 0z"/>
<path d="M4265 873 c-241 -8 -555 -33 -791 -64 l-91 -11 42 -167 42 -166 39 1
c21 1 129 11 239 22 539 57 1175 52 1675 -13 63 -8 122 -15 131 -15 13 0 25
34 58 166 23 92 40 168 38 170 -1 2 -59 10 -127 19 -415 50 -867 71 -1255 58z
m265 -69 c0 -25 38 -54 72 -54 l32 0 -29 -29 c-24 -26 -27 -36 -22 -70 3 -23
3 -41 1 -41 -3 0 -19 7 -36 16 -29 15 -34 15 -65 0 -18 -9 -35 -16 -37 -16 -1
0 0 17 4 38 6 32 3 41 -24 70 l-30 32 28 0 c39 0 61 15 76 49 12 30 30 33 30
5z m-450 -39 c19 -31 27 -35 63 -35 l41 0 -28 -29 c-27 -28 -28 -33 -18 -70 5
-23 8 -41 6 -41 -3 0 -21 7 -40 15 -34 14 -38 13 -64 -5 -39 -28 -43 -25 -35
17 6 34 4 40 -27 64 -34 29 -34 31 22 43 18 4 30 16 39 41 7 19 14 35 16 35 2
0 13 -16 25 -35z m875 -5 c5 -24 13 -31 41 -36 46 -9 50 -19 15 -45 -25 -19
-28 -26 -24 -60 6 -45 2 -47 -37 -19 -26 18 -30 19 -64 5 -19 -8 -37 -15 -39
-15 -2 0 1 18 6 40 10 37 9 42 -18 70 l-29 30 42 0 c38 0 45 4 63 35 24 39 35
38 44 -5z m-1235 -85 c20 -25 8 -50 -25 -50 -21 0 -31 5 -33 18 -4 21 14 47
33 47 7 0 18 -7 25 -15z m1640 0 c20 -25 8 -50 -25 -50 -21 0 -31 5 -33 18 -4
21 14 47 33 47 7 0 18 -7 25 -15z"/>
<path d="M3305 655 c-5 -2 -82 -15 -170 -31 -88 -15 -164 -30 -168 -34 -4 -4
34 -33 84 -66 51 -32 96 -62 101 -65 5 -3 -12 -48 -36 -100 -24 -52 -41 -95
-37 -97 5 -1 71 9 147 23 76 14 229 37 339 51 304 38 303 38 130 53 -82 7
-177 16 -210 19 l-60 7 -31 120 c-28 110 -32 120 -55 122 -13 1 -28 0 -34 -2z"/>
<path d="M5644 544 c-16 -64 -31 -119 -34 -124 -4 -7 -335 -40 -400 -40 -55 0
-5 -10 121 -25 156 -18 359 -48 513 -76 59 -11 110 -18 113 -16 2 3 -14 44
-37 92 -22 48 -40 91 -40 95 0 4 45 37 100 73 73 48 96 67 83 71 -27 8 -353
66 -373 66 -13 0 -23 -25 -46 -116z"/>
<path d="M2589 481 c-20 -16 -22 -22 -12 -44 13 -27 90 -83 101 -73 3 3 1 6
-5 6 -12 0 -63 49 -63 61 0 5 9 17 21 28 21 19 21 19 1 30 -16 8 -25 7 -43 -8z"/>
<path d="M6386 483 c-4 -4 3 -15 16 -25 23 -17 23 -18 5 -49 l-18 -32 23 15
c13 8 30 27 38 41 12 21 12 28 1 41 -14 16 -52 22 -65 9z"/>
<path d="M2302 430 c-133 -20 -231 -109 -202 -184 22 -59 115 -52 115 9 0 27
-3 30 -30 30 -33 0 -48 -30 -23 -46 9 -6 7 -9 -9 -9 -30 0 -42 43 -22 79 19
35 107 78 176 87 84 10 195 -15 309 -72 113 -55 180 -67 234 -39 40 21 80 62
80 83 0 9 -16 -2 -40 -28 l-39 -43 -65 5 c-52 5 -81 15 -148 51 -125 68 -231
92 -336 77z"/>
<path d="M6625 433 c-69 -8 -126 -27 -229 -79 -92 -46 -117 -54 -164 -54 -52
0 -57 2 -94 42 -23 25 -38 35 -38 26 0 -25 75 -86 115 -94 55 -10 99 1 200 51
148 73 267 89 385 54 59 -18 110 -67 110 -107 0 -33 -32 -63 -45 -42 -3 5 -1
10 5 10 6 0 10 10 8 23 -4 30 -53 37 -62 9 -22 -68 85 -94 115 -28 44 97 -136
208 -306 189z"/>
<path d="M6360 370 c-9 -6 -10 -10 -3 -10 6 0 15 5 18 10 8 12 4 12 -15 0z"/>
<path d="M2520 280 c-24 -24 -25 -34 -4 -54 24 -24 48 -21 41 6 -8 31 9 48 52
49 l36 1 -30 8 c-51 13 -74 11 -95 -10z"/>
<path d="M6415 290 l-30 -8 35 -1 c49 -2 64 -14 56 -45 -7 -30 13 -36 38 -10
19 19 20 25 4 47 -16 20 -62 28 -103 17z"/>
</g>
</svg>
